<?xml version="1.0" standalone="no"?>
<!DOCTYPE svg PUBLIC "-//W3C//DTD SVG 1.1//EN"
"http://www.w3.org/Graphics/SVG/1.1/DTD/svg11.dtd">

<svg width="644" height="425" view_box="0 0 644 425"
xmlns="http://www.w3.org/2000/svg"
xmlns:link="http://www.w3.org/1999/xlink">\n\n<desc>Généré par Mocodo 2.3.7 le Tue, 13 Nov 2018 07:28:57</desc>

<rect id="frame" x="0" y="0" width="644" height="425" fill="#ffffbf" stroke="none" stroke-width="0"/>

<!-- Association EST DE TYPE -->
<line x1="575" y1="238" x2="575" y2="382" stroke="#f46d43" stroke-width="2"/>
<text x="580.0" y="306" fill="#1a9850" font-family="Verdana" font-size="12">1,1</text>
<line x1="423" y1="382" x2="575" y2="382" stroke="#f46d43" stroke-width="2"/>
<text x="483" y="399.0" fill="#1a9850" font-family="Verdana" font-size="12">0,N</text>
<g id="association-EST DE TYPE">
	<path d="M 608 357 a 14 14 90 0 1 14 14 V 382 h -94 V 371 a 14 14 90 0 1 14 -14" fill="#fdae61" stroke="#fdae61" stroke-width="0"/>
	<path d="M 622 382.0 v 11 a 14 14 90 0 1 -14 14 H 542 a 14 14 90 0 1 -14 -14 V 382.0 H 94" fill="#fee08b" stroke="#fee08b" stroke-width="0"/>
	<rect x="528" y="357" width="94" height="50" fill="none" rx="14" stroke="#f46d43" stroke-width="2"/>
	<line x1="528" y1="382" x2="622" y2="382" stroke="#f46d43" stroke-width="1"/>
	<text x="535" y="374.7" fill="#000000" font-family="Verdana" font-size="12">EST DE TYPE</text>
</g>

<!-- Association CommandePayée -->
<line x1="278" y1="60" x2="423" y2="60" stroke="#f46d43" stroke-width="2"/>
<text x="336" y="52.0" fill="#1a9850" font-family="Verdana" font-size="12">0,N</text>
<line x1="575" y1="60" x2="423" y2="60" stroke="#f46d43" stroke-width="2"/>
<text x="488" y="77.0" fill="#1a9850" font-family="Verdana" font-size="12">0,N</text>
<g id="association-CommandePayée">
	<path d="M 469 35 a 14 14 90 0 1 14 14 V 60 h -120 V 49 a 14 14 90 0 1 14 -14" fill="#fdae61" stroke="#fdae61" stroke-width="0"/>
	<path d="M 483 60.0 v 11 a 14 14 90 0 1 -14 14 H 377 a 14 14 90 0 1 -14 -14 V 60.0 H 120" fill="#fee08b" stroke="#fee08b" stroke-width="0"/>
	<rect x="363" y="35" width="120" height="50" fill="none" rx="14" stroke="#f46d43" stroke-width="2"/>
	<line x1="363" y1="60" x2="483" y2="60" stroke="#f46d43" stroke-width="1"/>
	<text x="370" y="52.7" fill="#000000" font-family="Verdana" font-size="12">CommandePayée</text>
	<text x="370" y="77.8" fill="#000000" font-family="Verdana" font-size="12">datePaiement</text>
</g>

<!-- Association DetailsCommande -->
<line x1="278" y1="60" x2="423" y2="238" stroke="#f46d43" stroke-width="2"/>
<text x="284.751257924" y="111" fill="#1a9850" font-family="Verdana" font-size="12">1,N</text>
<line x1="575" y1="238" x2="423" y2="238" stroke="#f46d43" stroke-width="2"/>
<text x="508" y="255.0" fill="#1a9850" font-family="Verdana" font-size="12">0,N</text>
<g id="association-DetailsCommande">
	<path d="M 486 213 a 14 14 90 0 1 14 14 V 238 h -154 V 227 a 14 14 90 0 1 14 -14" fill="#fdae61" stroke="#fdae61" stroke-width="0"/>
	<path d="M 500 238.0 v 11 a 14 14 90 0 1 -14 14 H 360 a 14 14 90 0 1 -14 -14 V 238.0 H 154" fill="#fee08b" stroke="#fee08b" stroke-width="0"/>
	<rect x="346" y="213" width="154" height="50" fill="none" rx="14" stroke="#f46d43" stroke-width="2"/>
	<line x1="346" y1="238" x2="500" y2="238" stroke="#f46d43" stroke-width="1"/>
	<text x="367" y="230.7" fill="#000000" font-family="Verdana" font-size="12">DetailsCommande</text>
	<text x="353" y="255.8" fill="#000000" font-family="Verdana" font-size="12">nbProduitsCommandés</text>
</g>

<!-- Association LIVRER -->
<line x1="278" y1="60" x2="163" y2="60" stroke="#f46d43" stroke-width="2"/>
<text x="199" y="52.0" fill="#1a9850" font-family="Verdana" font-size="12">0,1</text>
<line x1="55" y1="60" x2="163" y2="60" stroke="#f46d43" stroke-width="2"/>
<text x="106" y="77.0" fill="#1a9850" font-family="Verdana" font-size="12">1,1</text>
<g id="association-LIVRER">
	<path d="M 179 35 a 14 14 90 0 1 14 14 V 60 h -60 V 49 a 14 14 90 0 1 14 -14" fill="#fdae61" stroke="#fdae61" stroke-width="0"/>
	<path d="M 193 60.0 v 11 a 14 14 90 0 1 -14 14 H 147 a 14 14 90 0 1 -14 -14 V 60.0 H 60" fill="#fee08b" stroke="#fee08b" stroke-width="0"/>
	<rect x="133" y="35" width="60" height="50" fill="none" rx="14" stroke="#f46d43" stroke-width="2"/>
	<line x1="133" y1="60" x2="193" y2="60" stroke="#f46d43" stroke-width="1"/>
	<text x="140" y="52.7" fill="#000000" font-family="Verdana" font-size="12">LIVRER</text>
</g>

<!-- Association PASSE -->
<line x1="55" y1="238" x2="163" y2="238" stroke="#f46d43" stroke-width="2"/>
<text x="103" y="255.0" fill="#1a9850" font-family="Verdana" font-size="12">0,N</text>
<line x1="278" y1="60" x2="163" y2="238" stroke="#f46d43" stroke-width="2"/>
<text x="256.064814265" y="111" fill="#1a9850" font-family="Verdana" font-size="12">1,1</text>
<g id="association-PASSE">
	<path d="M 176 213 a 14 14 90 0 1 14 14 V 238 h -54 V 227 a 14 14 90 0 1 14 -14" fill="#fdae61" stroke="#fdae61" stroke-width="0"/>
	<path d="M 190 238.0 v 11 a 14 14 90 0 1 -14 14 H 150 a 14 14 90 0 1 -14 -14 V 238.0 H 54" fill="#fee08b" stroke="#fee08b" stroke-width="0"/>
	<rect x="136" y="213" width="54" height="50" fill="none" rx="14" stroke="#f46d43" stroke-width="2"/>
	<line x1="136" y1="238" x2="190" y2="238" stroke="#f46d43" stroke-width="1"/>
	<text x="143" y="230.7" fill="#000000" font-family="Verdana" font-size="12">PASSE</text>
</g>

<!-- Entity Produit -->
<g id="entity-Produit">
	<g id="frame-Produit">
		<rect x="535" y="187" width="80" height="25" fill="#a6d96a" stroke="#a6d96a" stroke-width="0"/>
		<rect x="535" y="212.0" width="80" height="77" fill="#d9ef8b" stroke="#d9ef8b" stroke-width="0"/>
		<rect x="535" y="187" width="80" height="102" fill="none" stroke="#66bd63" stroke-width="2"/>
		<line x1="535" y1="212" x2="615" y2="212" stroke="#66bd63" stroke-width="1"/>
	</g>
	<text x="553" y="204.7" fill="#000000" font-family="Verdana" font-size="12">Produit</text>
	<text x="540" y="229.7" fill="#000000" font-family="Verdana" font-size="12">refProduit</text>
	<line x1="540" y1="232" x2="600" y2="232" stroke="#000000" stroke-width="1"/>
	<text x="540" y="246.8" fill="#000000" font-family="Verdana" font-size="12">nomProduit</text>
	<text x="540" y="263.8" fill="#000000" font-family="Verdana" font-size="12">prixProduit</text>
	<text x="540" y="280.8" fill="#000000" font-family="Verdana" font-size="12">nbProduits</text>
</g>

<!-- Entity TypeProduit -->
<g id="entity-TypeProduit">
	<g id="frame-TypeProduit">
		<rect x="368" y="348" width="110" height="25" fill="#a6d96a" stroke="#a6d96a" stroke-width="0"/>
		<rect x="368" y="373.0" width="110" height="43" fill="#d9ef8b" stroke="#d9ef8b" stroke-width="0"/>
		<rect x="368" y="348" width="110" height="68" fill="none" stroke="#66bd63" stroke-width="2"/>
		<line x1="368" y1="373" x2="478" y2="373" stroke="#66bd63" stroke-width="1"/>
	</g>
	<text x="386" y="365.7" fill="#000000" font-family="Verdana" font-size="12">TypeProduit</text>
	<text x="373" y="390.8" fill="#000000" font-family="Verdana" font-size="12">refTypeProduit</text>
	<line x1="373" y1="393" x2="462" y2="393" stroke="#000000" stroke-width="1"/>
	<text x="373" y="407.8" fill="#000000" font-family="Verdana" font-size="12">nomTypeProduit</text>
</g>

<!-- Entity MethodePaiement -->
<g id="entity-MethodePaiement">
	<g id="frame-MethodePaiement">
		<rect x="515" y="9" width="120" height="25" fill="#a6d96a" stroke="#a6d96a" stroke-width="0"/>
		<rect x="515" y="34.0" width="120" height="77" fill="#d9ef8b" stroke="#d9ef8b" stroke-width="0"/>
		<rect x="515" y="9" width="120" height="102" fill="none" stroke="#66bd63" stroke-width="2"/>
		<line x1="515" y1="34" x2="635" y2="34" stroke="#66bd63" stroke-width="1"/>
	</g>
	<text x="520" y="26.7" fill="#000000" font-family="Verdana" font-size="12">MethodePaiement</text>
	<text x="520" y="51.7" fill="#000000" font-family="Verdana" font-size="12">refPaiement</text>
	<line x1="520" y1="54" x2="594" y2="54" stroke="#000000" stroke-width="1"/>
	<text x="520" y="68.8" fill="#000000" font-family="Verdana" font-size="12">numCarte</text>
	<text x="520" y="85.8" fill="#000000" font-family="Verdana" font-size="12">dateExpiration</text>
	<text x="520" y="102.8" fill="#000000" font-family="Verdana" font-size="12">codeCarte</text>
</g>

<!-- Entity Client -->
<g id="entity-Client">
	<g id="frame-Client">
		<rect x="12" y="119" width="86" height="25" fill="#a6d96a" stroke="#a6d96a" stroke-width="0"/>
		<rect x="12" y="144.0" width="86" height="213" fill="#d9ef8b" stroke="#d9ef8b" stroke-width="0"/>
		<rect x="12" y="119" width="86" height="238" fill="none" stroke="#66bd63" stroke-width="2"/>
		<line x1="12" y1="144" x2="98" y2="144" stroke="#66bd63" stroke-width="1"/>
	</g>
	<text x="37" y="136.7" fill="#000000" font-family="Verdana" font-size="12">Client</text>
	<text x="17" y="161.7" fill="#000000" font-family="Verdana" font-size="12">numClient</text>
	<line x1="17" y1="164" x2="79" y2="164" stroke="#000000" stroke-width="1"/>
	<text x="17" y="178.7" fill="#000000" font-family="Verdana" font-size="12">email</text>
	<text x="17" y="195.7" fill="#000000" font-family="Verdana" font-size="12">nom</text>
	<text x="17" y="212.7" fill="#000000" font-family="Verdana" font-size="12">prenom</text>
	<text x="17" y="229.7" fill="#000000" font-family="Verdana" font-size="12">motDePasse</text>
	<text x="17" y="246.8" fill="#000000" font-family="Verdana" font-size="12">sexe</text>
	<text x="17" y="263.8" fill="#000000" font-family="Verdana" font-size="12">tel</text>
	<text x="17" y="280.8" fill="#000000" font-family="Verdana" font-size="12">rue</text>
	<text x="17" y="297.8" fill="#000000" font-family="Verdana" font-size="12">numRue</text>
	<text x="17" y="314.8" fill="#000000" font-family="Verdana" font-size="12">cp</text>
	<text x="17" y="331.8" fill="#000000" font-family="Verdana" font-size="12">ville</text>
	<text x="17" y="348.8" fill="#000000" font-family="Verdana" font-size="12">pays</text>
</g>

<!-- Entity Commande -->
<g id="entity-Commande">
	<g id="frame-Commande">
		<rect x="225" y="26" width="106" height="25" fill="#a6d96a" stroke="#a6d96a" stroke-width="0"/>
		<rect x="225" y="51.0" width="106" height="43" fill="#d9ef8b" stroke="#d9ef8b" stroke-width="0"/>
		<rect x="225" y="26" width="106" height="68" fill="none" stroke="#66bd63" stroke-width="2"/>
		<line x1="225" y1="51" x2="331" y2="51" stroke="#66bd63" stroke-width="1"/>
	</g>
	<text x="243" y="43.7" fill="#000000" font-family="Verdana" font-size="12">Commande</text>
	<text x="230" y="68.8" fill="#000000" font-family="Verdana" font-size="12">refCommande</text>
	<line x1="230" y1="71" x2="316" y2="71" stroke="#000000" stroke-width="1"/>
	<text x="230" y="85.8" fill="#000000" font-family="Verdana" font-size="12">dateCommande</text>
</g>

<!-- Entity Livraison -->
<g id="entity-Livraison">
	<g id="frame-Livraison">
		<rect x="9" y="26" width="92" height="25" fill="#a6d96a" stroke="#a6d96a" stroke-width="0"/>
		<rect x="9" y="51.0" width="92" height="43" fill="#d9ef8b" stroke="#d9ef8b" stroke-width="0"/>
		<rect x="9" y="26" width="92" height="68" fill="none" stroke="#66bd63" stroke-width="2"/>
		<line x1="9" y1="51" x2="101" y2="51" stroke="#66bd63" stroke-width="1"/>
	</g>
	<text x="27" y="43.7" fill="#000000" font-family="Verdana" font-size="12">Livraison</text>
	<text x="14" y="68.8" fill="#000000" font-family="Verdana" font-size="12">refLivraison</text>
	<line x1="14" y1="71" x2="85" y2="71" stroke="#000000" stroke-width="1"/>
	<text x="14" y="85.8" fill="#000000" font-family="Verdana" font-size="12">dateLivraison</text>
</g>
</svg>
